# Blender3D v249 OBJ File: aim9l.blend
# www.blender3d.org
v -3.315161 0.689663 -0.000000
v -3.793365 0.246423 -0.000000
v -3.294029 -0.000000 -0.024509
v -3.294029 -0.000000 0.024509
v -3.797044 -0.000000 0.000000
v -3.080288 -0.000000 0.000000
v -3.138593 0.941622 -0.000000
v -3.080288 0.941622 -0.000000
v -3.138593 0.941622 -0.000000
v -3.080288 0.941622 -0.000000
v 2.522551 0.322473 -0.000000
v 3.074734 -0.000000 -0.034760
v 3.074734 -0.000000 0.034760
v 4.522551 -0.000000 -0.012965
v 4.522551 -0.000000 0.012965
v 3.912791 0.977609 -0.000000
v 2.522551 0.000000 -0.000000
v 3.187879 0.977609 0.000000
v 4.522552 0.977609 -0.000000
v 2.522551 -0.322473 -0.000000
v 3.074734 0.000000 0.034760
v 3.074734 0.000000 -0.034760
v 4.522551 0.000000 0.012965
v 4.522551 0.000000 -0.012965
v 3.912791 -0.977609 -0.000000
v 2.522551 -0.000000 -0.000000
v 3.187879 -0.977609 -0.000000
v 4.522552 -0.977609 -0.000000
v -3.315161 -0.689663 -0.000000
v -3.793365 -0.246423 -0.000000
v -3.294029 0.000000 0.024509
v -3.294029 0.000000 -0.024509
v -3.797044 0.000000 0.000000
v -3.080288 0.000000 0.000000
v -3.138593 -0.941622 -0.000000
v -3.080288 -0.941622 -0.000000
v -3.138593 -0.941622 -0.000000
v -3.080288 -0.941622 -0.000000
v -3.315161 -0.000000 -0.689663
v -3.793365 -0.000000 -0.246423
v -3.294029 -0.024509 0.000000
v -3.294029 0.024509 0.000000
v -3.797044 0.000000 0.000000
v -3.080288 0.000000 0.000000
v -3.138593 -0.000000 -0.941622
v -3.080288 -0.000000 -0.941622
v -3.138593 -0.000000 -0.941622
v -3.080288 -0.000000 -0.941622
v 2.522551 -0.000000 -0.322473
v 3.074734 -0.034760 0.000000
v 3.074734 0.034760 0.000000
v 4.522551 -0.012965 0.000000
v 4.522551 0.012965 0.000000
v 3.912791 -0.000000 -0.977609
v 2.522551 -0.000000 -0.000000
v 3.187879 -0.000000 -0.977609
v 4.522552 -0.000000 -0.977609
v 2.522551 -0.000000 0.322473
v 3.074734 0.034760 -0.000000
v 3.074734 -0.034760 -0.000000
v 4.522551 0.012965 -0.000000
v 4.522551 -0.012965 -0.000000
v 3.912791 -0.000000 0.977609
v 2.522551 -0.000000 0.000000
v 3.187879 -0.000000 0.977609
v 4.522552 -0.000000 0.977609
v -3.315161 -0.000000 0.689663
v -3.793365 -0.000000 0.246423
v -3.294029 0.024509 -0.000000
v -3.294029 -0.024509 -0.000000
v -3.797044 0.000000 -0.000000
v -3.080288 0.000000 -0.000000
v -3.138593 -0.000000 0.941622
v -3.080288 -0.000000 0.941622
v -3.138593 -0.000000 0.941622
v -3.080288 -0.000000 0.941622
v -2.629786 -0.164399 -0.164399
v -2.629786 -0.232495 0.000000
v -2.629786 -0.164399 0.164399
v -2.629786 0.000000 0.232495
v -2.629786 0.164399 0.164399
v -2.629786 0.232495 -0.000000
v -2.629786 0.164399 -0.164399
v -2.629786 0.000000 -0.232495
v 4.684608 -0.164399 -0.164399
v 4.684608 -0.232495 -0.000000
v 4.684608 -0.164399 0.164399
v 4.684608 0.000000 0.232495
v 4.684608 0.164399 0.164399
v 4.684608 0.232495 -0.000000
v 4.684608 0.164398 -0.164399
v 4.684608 -0.000000 -0.232495
v 4.684608 0.000000 -0.000000
v -3.882249 -0.000000 -0.204152
v -3.882249 0.144357 -0.144357
v -3.882249 0.204152 -0.000000
v -3.882249 0.144357 0.144357
v -3.882249 -0.000000 0.204152
v -3.882249 -0.144358 0.144357
v -3.882249 -0.204152 0.000000
v -3.882249 -0.144358 -0.144357
v -4.400846 -0.109990 -0.109990
v -4.400846 -0.155549 0.000000
v -4.400846 -0.109990 0.109990
v -4.400846 -0.000000 0.155549
v -4.400846 0.109990 0.109990
v -4.400846 0.155549 -0.000000
v -4.400846 0.109990 -0.109990
v -4.400846 -0.000000 -0.155549
v -4.616113 -0.000000 -0.000000
v -4.616113 -0.000000 -0.054310
v -4.616113 0.038403 -0.038403
v -4.616113 0.054310 -0.000000
v -4.616113 0.038403 0.038403
v -4.616113 -0.000000 0.054310
v -4.616113 -0.038403 0.038403
v -4.616113 -0.054310 0.000000
v -4.616113 -0.038403 -0.038403
vt 0.179699 0.892375
vt 0.162346 0.793327
vt 0.164423 0.522212
vt 0.932621 0.906522
vt 0.932621 0.522212
vt 0.736065 0.522212
vt 0.790333 0.522212
vt 0.736065 0.648980
vt 0.932621 0.137902
vt 0.736065 0.395444
vt 0.179699 0.152049
vt 0.162346 0.251097
vt 0.948548 0.522212
vt 0.948548 0.586839
vt 0.948548 0.457585
vt 0.948548 0.430815
vt 0.948548 0.613609
vt 0.034491 0.522212
vt 0.034491 0.537309
vt 0.034491 0.507115
vt 0.034491 0.500862
vt 0.034491 0.543562
vt 0.055647 0.565450
vt 0.055647 0.522212
vt 0.055647 0.478974
vt 0.055647 0.461064
vt 0.055647 0.583360
vt 0.106614 0.602467
vt 0.106614 0.578961
vt 0.106614 0.522212
vt 0.106614 0.465463
vt 0.106614 0.441957
vt 0.229704 0.586839
vt 0.229704 0.522212
vt 0.229704 0.457585
vt 0.229704 0.430815
vt 0.229704 0.613609
vt 0.185429 0.152049
vt 0.114988 0.522212
vt 0.115349 0.425340
vt 0.185429 0.522212
vt 0.801452 0.137902
vt 0.872695 0.137902
vt 0.801452 0.906522
vt 0.872695 0.906522
vt 0.185429 0.892375
vt 0.115349 0.619084
vn 0.847072 0.531449 0.000000
vn -0.761528 0.648091 0.000000
vn -0.003815 0.019105 0.999786
vn -0.003815 0.019105 -0.999786
vn 0.999634 0.026490 0.000000
vn 0.452589 0.015992 0.891568
vn 0.452589 0.015992 -0.891568
vn -1.000000 0.000000 0.000000
vn -0.021821 0.024567 0.999451
vn -0.931089 0.364727 0.000000
vn -0.021821 0.024567 -0.999451
vn 0.999634 -0.026490 0.000000
vn 0.452589 -0.015992 -0.891568
vn 0.452589 -0.015992 0.891568
vn -0.021821 -0.024567 -0.999451
vn -0.931089 -0.364727 0.000000
vn -0.021821 -0.024567 0.999451
vn 0.847072 -0.531449 0.000000
vn -0.761528 -0.648091 0.000000
vn -0.003815 -0.019105 -0.999786
vn -0.003815 -0.019105 0.999786
vn 0.847072 0.000000 -0.531449
vn -0.761528 0.000000 -0.648091
vn -0.003815 0.999786 -0.019105
vn -0.003815 -0.999786 -0.019105
vn 0.999634 0.000000 -0.026490
vn 0.452589 0.891568 -0.015992
vn 0.452589 -0.891568 -0.015992
vn -0.021821 0.999451 -0.024567
vn -0.931089 0.000000 -0.364727
vn -0.021821 -0.999451 -0.024567
vn 0.999634 0.000000 0.026490
vn 0.452589 -0.891568 0.015992
vn 0.452589 0.891568 0.015992
vn -0.021821 -0.999451 0.024567
vn -0.931089 0.000000 0.364727
vn -0.021821 0.999451 0.024567
vn 0.847072 0.000000 0.531449
vn -0.761528 0.000000 0.648091
vn -0.003815 -0.999786 0.019105
vn -0.003815 0.999786 0.019105
vn 1.000000 0.000000 0.000000
vn 0.581500 -0.805872 -0.111240
vn 0.581500 -0.491165 -0.648518
vn 0.581500 -0.648518 0.491165
vn 0.581500 -0.111240 0.805872
vn 0.581500 0.491165 0.648518
vn 0.581500 0.805872 0.111240
vn 0.581500 0.648518 -0.491165
vn 0.581500 0.111240 -0.805872
vn -0.779687 -0.378033 -0.499130
vn -0.779687 -0.620258 -0.085635
vn -0.779687 -0.499130 0.378033
vn -0.779687 -0.085635 0.620258
vn -0.779687 0.378033 0.499130
vn -0.779687 0.620258 0.085635
vn -0.779687 0.499130 -0.378033
vn -0.779687 0.085635 -0.620258
vn -0.264443 -0.677999 -0.685812
vn -0.264443 -0.964354 -0.005493
vn -0.264443 -0.685812 0.677999
vn -0.264443 -0.005493 0.964354
vn -0.264443 0.677999 0.685812
vn -0.264443 0.964354 0.005493
vn -0.264443 0.685812 -0.677999
vn -0.264443 0.005493 -0.964354
vn -0.057985 0.000214 -0.998291
vn -0.057985 -0.705741 -0.706076
vn -0.057985 0.706076 -0.705741
vn -0.057985 0.998291 0.000214
vn -0.057985 0.705741 0.706076
vn -0.057985 -0.000214 0.998291
vn -0.057985 -0.706076 0.705741
vn -0.057985 -0.998291 -0.000214
vn -0.011200 -0.797113 -0.603687
vn -0.011200 -0.990539 0.136753
vn -0.011200 -0.603687 0.797113
vn -0.011200 0.136753 0.990539
vn -0.011200 0.797113 0.603687
vn -0.011200 0.990539 -0.136753
vn -0.011200 0.603687 -0.797113
vn -0.011200 -0.136753 -0.990539
vn 0.000000 0.000000 0.000000
vn -0.999878 0.000000 0.014924
vn -0.916318 0.000000 0.400372
vn 0.000000 1.000000 0.000000
vn 0.998077 0.000000 0.061800
vn 0.000000 -1.000000 0.000000
vn -0.462630 0.000000 0.886532
vn 0.206122 0.000000 0.978515
vn -0.462630 0.000000 -0.886532
vn 0.206122 0.000000 -0.978515
vn -0.916318 0.000000 -0.400372
vn -0.999878 0.000000 -0.014924
vn 0.998077 0.000000 -0.061800
vn -0.999878 -0.014924 0.000000
vn -0.916318 -0.400372 0.000000
vn 0.000000 0.000000 1.000000
vn 0.998077 -0.061800 0.000000
vn 0.000000 0.000000 -1.000000
vn -0.462630 -0.886532 0.000000
vn 0.206122 -0.978515 0.000000
vn -0.462630 0.886532 0.000000
vn 0.206122 0.978515 0.000000
vn -0.916318 0.400372 0.000000
vn -0.999878 0.014924 0.000000
vn 0.998077 0.061800 0.000000
usemtl Material.002_skin
s 1
f 9/1/1 1/2/2 4/3/3
f 3/3/4 1/2/2 9/1/1
f 19/4/5 15/5/6 14/5/7
f 17/6/8 13/7/9 11/8/10
f 17/6/8 11/8/10 12/7/11
f 28/9/12 24/5/13 23/5/14
f 26/6/8 22/7/15 20/10/16
f 26/6/8 20/10/16 21/7/17
f 37/11/18 29/12/19 32/3/20
f 37/11/18 31/3/21 29/12/19
usemtl Material.001_skin
f 47/1/22 39/2/23 42/3/24
f 41/3/25 39/2/23 47/1/22
f 57/4/26 53/5/27 52/5/28
f 55/6/8 51/7/29 49/8/30
f 55/6/8 49/8/30 50/7/31
f 66/9/32 62/5/33 61/5/34
f 64/6/8 60/7/35 58/10/36
f 64/6/8 58/10/36 59/7/37
f 75/11/38 67/12/39 70/3/40
f 75/11/38 69/3/41 67/12/39
usemtl Material_skin
f 93/13/42 86/13/43 85/14/44
f 93/13/42 87/15/45 86/13/43
f 93/13/42 88/16/46 87/15/45
f 93/13/42 89/15/47 88/16/46
f 93/13/42 90/13/48 89/15/47
f 93/13/42 91/14/49 90/13/48
f 93/13/42 92/17/50 91/14/49
f 93/13/42 85/14/44 92/17/50
f 110/18/8 118/19/51 117/18/52
f 110/18/8 117/18/52 116/20/53
f 110/18/8 116/20/53 115/21/54
f 110/18/8 115/21/54 114/20/55
f 110/18/8 114/20/55 113/18/56
f 110/18/8 113/18/56 112/19/57
f 110/18/8 112/19/57 111/22/58
f 111/22/58 118/19/51 110/18/8
f 102/23/59 103/24/60 117/18/52
f 102/23/59 117/18/52 118/19/51
f 103/24/60 104/25/61 116/20/53
f 103/24/60 116/20/53 117/18/52
f 104/25/61 105/26/62 115/21/54
f 104/25/61 115/21/54 116/20/53
f 105/26/62 106/25/63 114/20/55
f 105/26/62 114/20/55 115/21/54
f 106/25/63 107/24/64 113/18/56
f 106/25/63 113/18/56 114/20/55
f 107/24/64 108/23/65 112/19/57
f 107/24/64 112/19/57 113/18/56
f 108/23/65 109/27/66 111/22/58
f 108/23/65 111/22/58 112/19/57
f 109/27/66 102/23/59 118/19/51
f 109/27/66 118/19/51 111/22/58
f 94/28/67 101/29/68 102/23/59
f 94/28/67 102/23/59 109/27/66
f 95/29/69 94/28/67 109/27/66
f 95/29/69 109/27/66 108/23/65
f 96/30/70 95/29/69 108/23/65
f 96/30/70 108/23/65 107/24/64
f 97/31/71 96/30/70 107/24/64
f 97/31/71 107/24/64 106/25/63
f 98/32/72 97/31/71 106/25/63
f 98/32/72 106/25/63 105/26/62
f 99/31/73 98/32/72 105/26/62
f 99/31/73 105/26/62 104/25/61
f 100/30/74 99/31/73 104/25/61
f 100/30/74 104/25/61 103/24/60
f 101/29/68 100/30/74 103/24/60
f 101/29/68 103/24/60 102/23/59
f 77/33/75 78/34/76 100/30/74
f 77/33/75 100/30/74 101/29/68
f 78/34/76 79/35/77 99/31/73
f 78/34/76 99/31/73 100/30/74
f 79/35/77 80/36/78 98/32/72
f 79/35/77 98/32/72 99/31/73
f 80/36/78 81/35/79 97/31/71
f 80/36/78 97/31/71 98/32/72
f 81/35/79 82/34/80 96/30/70
f 81/35/79 96/30/70 97/31/71
f 82/34/80 83/33/81 95/29/69
f 82/34/80 95/29/69 96/30/70
f 83/33/81 84/37/82 94/28/67
f 83/33/81 94/28/67 95/29/69
f 84/37/82 77/33/75 101/29/68
f 84/37/82 101/29/68 94/28/67
f 85/14/44 77/33/75 84/37/82
f 85/14/44 84/37/82 92/17/50
f 83/33/81 91/14/49 92/17/50
f 83/33/81 92/17/50 84/37/82
f 82/34/80 90/13/48 91/14/49
f 82/34/80 91/14/49 83/33/81
f 81/35/79 89/15/47 90/13/48
f 81/35/79 90/13/48 82/34/80
f 80/36/78 88/16/46 89/15/47
f 80/36/78 89/15/47 81/35/79
f 79/35/77 87/15/45 88/16/46
f 79/35/77 88/16/46 80/36/78
f 78/34/76 86/13/43 87/15/45
f 78/34/76 87/15/45 79/35/77
f 77/33/75 85/14/44 86/13/43
f 77/33/75 86/13/43 78/34/76
usemtl Material.001_skin
s off
f 75/11/83 76/38/83 74/38/83
f 75/11/83 74/38/83 73/11/83
s 1
f 71/39/84 70/3/40 68/40/85
f 70/3/40 67/12/39 68/40/85
f 71/39/84 68/40/85 69/3/41
f 68/40/85 67/12/39 69/3/41
f 76/38/86 72/41/87 75/11/38
f 72/41/87 69/3/41 75/11/38
f 75/11/38 70/3/40 72/41/87
f 75/11/38 72/41/87 74/38/88
f 65/42/89 63/43/90 59/7/37
f 65/42/89 59/7/37 58/10/36
f 65/42/89 58/10/36 60/7/35
f 65/42/89 60/7/35 63/43/90
f 66/9/32 63/43/90 62/5/33
f 63/43/90 60/7/35 62/5/33
f 66/9/32 61/5/34 63/43/90
f 61/5/34 59/7/37 63/43/90
f 56/44/91 54/45/92 50/7/31
f 56/44/91 50/7/31 49/8/30
f 56/44/91 49/8/30 51/7/29
f 56/44/91 51/7/29 54/45/92
f 57/4/26 54/45/92 53/5/27
f 54/45/92 51/7/29 53/5/27
f 57/4/26 52/5/28 54/45/92
f 52/5/28 50/7/31 54/45/92
s off
f 47/1/83 48/46/83 46/46/83
f 47/1/83 46/46/83 45/1/83
s 1
f 39/2/23 40/47/93 42/3/24
f 40/47/93 43/39/94 42/3/24
f 39/2/23 41/3/25 40/47/93
f 41/3/25 43/39/94 40/47/93
f 48/46/88 44/41/95 47/1/22
f 44/41/95 41/3/25 47/1/22
f 47/1/22 42/3/24 44/41/95
f 47/1/22 44/41/95 46/46/86
usemtl Material.002_skin
s off
f 37/11/83 38/38/83 36/38/83
f 37/11/83 36/38/83 35/11/83
s 1
f 33/39/96 32/3/20 30/40/97
f 32/3/20 29/12/19 30/40/97
f 33/39/96 30/40/97 31/3/21
f 30/40/97 29/12/19 31/3/21
f 38/38/98 34/41/99 37/11/18
f 34/41/99 31/3/21 37/11/18
f 37/11/18 32/3/20 34/41/99
f 37/11/18 34/41/99 36/38/100
f 27/42/101 25/43/102 21/7/17
f 27/42/101 21/7/17 20/10/16
f 27/42/101 20/10/16 22/7/15
f 27/42/101 22/7/15 25/43/102
f 28/9/12 25/43/102 24/5/13
f 25/43/102 22/7/15 24/5/13
f 28/9/12 23/5/14 25/43/102
f 23/5/14 21/7/17 25/43/102
f 18/44/103 16/45/104 12/7/11
f 18/44/103 12/7/11 11/8/10
f 18/44/103 11/8/10 13/7/9
f 18/44/103 13/7/9 16/45/104
f 19/4/5 16/45/104 15/5/6
f 16/45/104 13/7/9 15/5/6
f 19/4/5 14/5/7 16/45/104
f 14/5/7 12/7/11 16/45/104
s off
f 9/1/83 10/46/83 8/46/83
f 9/1/83 8/46/83 7/1/83
s 1
f 1/2/2 2/47/105 4/3/3
f 2/47/105 5/39/106 4/3/3
f 1/2/2 3/3/4 2/47/105
f 3/3/4 5/39/106 2/47/105
f 10/46/100 6/41/107 9/1/1
f 6/41/107 3/3/4 9/1/1
f 9/1/1 4/3/3 6/41/107
f 9/1/1 6/41/107 8/46/98
